<?xml version="1.0" encoding="UTF-8" standalone="no"?>
<!DOCTYPE svg PUBLIC "-//W3C//DTD SVG 1.1//EN"
 "http://www.w3.org/Graphics/SVG/1.1/DTD/svg11.dtd">
<!-- Generated by graphviz version 2.43.0 (0)
 -->
<!-- Title: surf_equipment Pages: 1 -->
<svg width="1158pt" height="1476pt"
 viewBox="0.00 0.00 1158.00 1475.50" xmlns="http://www.w3.org/2000/svg" xmlns:xlink="http://www.w3.org/1999/xlink">
<g id="graph0" class="graph" transform="scale(1 1) rotate(0) translate(4 1471.5)">
<title>surf_equipment</title>
<polygon fill="white" stroke="transparent" points="-4,4 -4,-1471.5 1154,-1471.5 1154,4 -4,4"/>
<!-- sails -->
<g id="node1" class="node">
<title>sails</title>
<polygon fill="#ddebf7" stroke="transparent" points="7.5,-1441 7.5,-1466 210.5,-1466 210.5,-1441 7.5,-1441"/>
<text text-anchor="start" x="90.5" y="-1450.8" font-family="Times,serif" font-weight="bold" font-size="14.00">sails</text>
<text text-anchor="start" x="12.5" y="-1424.8" font-family="Times,serif" font-size="14.00">PK sail_id : TEXT</text>
<text text-anchor="start" x="12.5" y="-1399.8" font-family="Times,serif" font-size="14.00"> area : REAL</text>
<text text-anchor="start" x="12.5" y="-1374.8" font-family="Times,serif" font-size="14.00"> discipline : TEXT</text>
<text text-anchor="start" x="12.5" y="-1349.8" font-family="Times,serif" font-size="14.00"> mast_length : INTEGER</text>
<text text-anchor="start" x="12.5" y="-1324.8" font-family="Times,serif" font-size="14.00"> mast_diameter_ind : TEXT</text>
<text text-anchor="start" x="12.5" y="-1299.8" font-family="Times,serif" font-size="14.00"> mast_curve_ind : TEXT</text>
<text text-anchor="start" x="12.5" y="-1274.8" font-family="Times,serif" font-size="14.00"> boom_length_ind : TEXT</text>
<text text-anchor="start" x="12.5" y="-1249.8" font-family="Times,serif" font-size="14.00"> brand : TEXT</text>
<text text-anchor="start" x="12.5" y="-1224.8" font-family="Times,serif" font-size="14.00"> model : TEXT</text>
<text text-anchor="start" x="12.5" y="-1199.8" font-family="Times,serif" font-size="14.00"> cambers : TEXT</text>
<text text-anchor="start" x="12.5" y="-1174.8" font-family="Times,serif" font-size="14.00"> color : TEXT</text>
<text text-anchor="start" x="12.5" y="-1149.8" font-family="Times,serif" font-size="14.00"> origin : TEXT</text>
<polygon fill="none" stroke="black" points="6,-1140.5 6,-1467.5 211,-1467.5 211,-1140.5 6,-1140.5"/>
</g>
<!-- rigs -->
<g id="node10" class="node">
<title>rigs</title>
<polygon fill="#ddebf7" stroke="transparent" points="530,-665 530,-690 790,-690 790,-665 530,-665"/>
<text text-anchor="start" x="644.5" y="-674.8" font-family="Times,serif" font-weight="bold" font-size="14.00">rigs</text>
<text text-anchor="start" x="535" y="-648.8" font-family="Times,serif" font-size="14.00">PK rig_id : TEXT</text>
<text text-anchor="start" x="535" y="-623.8" font-family="Times,serif" font-size="14.00"> sail_id : TEXT</text>
<text text-anchor="start" x="535" y="-598.8" font-family="Times,serif" font-size="14.00"> mast_id : TEXT</text>
<text text-anchor="start" x="535" y="-573.8" font-family="Times,serif" font-size="14.00"> base_pulley_id : TEXT</text>
<text text-anchor="start" x="535" y="-548.8" font-family="Times,serif" font-size="14.00"> base_pulley_lenght_setting : TEXT</text>
<text text-anchor="start" x="535" y="-523.8" font-family="Times,serif" font-size="14.00"> extension_id : TEXT</text>
<text text-anchor="start" x="535" y="-498.8" font-family="Times,serif" font-size="14.00"> extension_length_setting : TEXT</text>
<text text-anchor="start" x="535" y="-473.8" font-family="Times,serif" font-size="14.00"> boom_id : TEXT</text>
<text text-anchor="start" x="535" y="-448.8" font-family="Times,serif" font-size="14.00"> boom_length_setting : TEXT</text>
<text text-anchor="start" x="535" y="-423.8" font-family="Times,serif" font-size="14.00"> rdm_sdm_shim_id : TEXT</text>
<text text-anchor="start" x="535" y="-398.8" font-family="Times,serif" font-size="14.00"> uphaul_id : TEXT</text>
<text text-anchor="start" x="535" y="-373.8" font-family="Times,serif" font-size="14.00"> harness_line_id : TEXT</text>
<polygon fill="none" stroke="black" points="529,-364.5 529,-691.5 791,-691.5 791,-364.5 529,-364.5"/>
</g>
<!-- sails&#45;&gt;rigs -->
<g id="edge8" class="edge">
<title>sails&#45;&gt;rigs</title>
<path fill="none" stroke="black" d="M211.21,-1235.17C301.24,-1169.54 430.49,-1063.1 511,-943 559.76,-870.26 594.5,-779.59 618.02,-701.57"/>
<polygon fill="black" stroke="black" points="621.48,-702.21 620.98,-691.63 614.77,-700.22 621.48,-702.21"/>
<text text-anchor="middle" x="373" y="-1216.8" font-family="Helvetica,sans-Serif" font-size="14.00">sail_id &#45;&gt; sail_id</text>
<text text-anchor="middle" x="614.48" y="-695.43" font-family="Helvetica,sans-Serif" font-size="14.00">∞</text>
<text text-anchor="middle" x="216.21" y="-1223.97" font-family="Helvetica,sans-Serif" font-size="14.00">1</text>
</g>
<!-- masts -->
<g id="node2" class="node">
<title>masts</title>
<polygon fill="#ddebf7" stroke="transparent" points="16.5,-1096 16.5,-1121 201.5,-1121 201.5,-1096 16.5,-1096"/>
<text text-anchor="start" x="85" y="-1105.8" font-family="Times,serif" font-weight="bold" font-size="14.00">masts</text>
<text text-anchor="start" x="21.5" y="-1079.8" font-family="Times,serif" font-size="14.00">PK mast_id : TEXT</text>
<text text-anchor="start" x="21.5" y="-1054.8" font-family="Times,serif" font-size="14.00"> length : INTEGER</text>
<text text-anchor="start" x="21.5" y="-1029.8" font-family="Times,serif" font-size="14.00"> diameter : TEXT</text>
<text text-anchor="start" x="21.5" y="-1004.8" font-family="Times,serif" font-size="14.00"> carbon_perc : INTEGER</text>
<text text-anchor="start" x="21.5" y="-979.8" font-family="Times,serif" font-size="14.00"> curve : TEXT</text>
<text text-anchor="start" x="21.5" y="-954.8" font-family="Times,serif" font-size="14.00"> bag : TEXT</text>
<text text-anchor="start" x="21.5" y="-929.8" font-family="Times,serif" font-size="14.00"> brand : TEXT</text>
<text text-anchor="start" x="21.5" y="-904.8" font-family="Times,serif" font-size="14.00"> model : TEXT</text>
<text text-anchor="start" x="21.5" y="-879.8" font-family="Times,serif" font-size="14.00"> color : TEXT</text>
<text text-anchor="start" x="21.5" y="-854.8" font-family="Times,serif" font-size="14.00"> origin : TEXT</text>
<polygon fill="none" stroke="black" points="15,-845.5 15,-1122.5 202,-1122.5 202,-845.5 15,-845.5"/>
</g>
<!-- masts&#45;&gt;rigs -->
<g id="edge7" class="edge">
<title>masts&#45;&gt;rigs</title>
<path fill="none" stroke="black" d="M202.23,-944.85C289.07,-904.95 418.92,-836.69 511,-750 527.01,-734.92 542.18,-717.81 556.26,-699.92"/>
<polygon fill="black" stroke="black" points="559.3,-701.7 562.65,-691.65 553.76,-697.42 559.3,-701.7"/>
<text text-anchor="middle" x="373" y="-927.8" font-family="Helvetica,sans-Serif" font-size="14.00">mast_id &#45;&gt; mast_id</text>
<text text-anchor="middle" x="556.15" y="-695.45" font-family="Helvetica,sans-Serif" font-size="14.00">∞</text>
<text text-anchor="middle" x="207.23" y="-933.65" font-family="Helvetica,sans-Serif" font-size="14.00">1</text>
</g>
<!-- extensions -->
<g id="node3" class="node">
<title>extensions</title>
<polygon fill="#ddebf7" stroke="transparent" points="20.5,-801 20.5,-826 196.5,-826 196.5,-801 20.5,-801"/>
<text text-anchor="start" x="66" y="-810.8" font-family="Times,serif" font-weight="bold" font-size="14.00">extensions</text>
<text text-anchor="start" x="25.5" y="-784.8" font-family="Times,serif" font-size="14.00">PK extension_id : TEXT</text>
<text text-anchor="start" x="25.5" y="-759.8" font-family="Times,serif" font-size="14.00"> brand : TEXT</text>
<text text-anchor="start" x="25.5" y="-734.8" font-family="Times,serif" font-size="14.00"> origin : TEXT</text>
<polygon fill="none" stroke="black" points="19.5,-725 19.5,-827 197.5,-827 197.5,-725 19.5,-725"/>
</g>
<!-- extensions&#45;&gt;rigs -->
<g id="edge5" class="edge">
<title>extensions&#45;&gt;rigs</title>
<path fill="none" stroke="black" d="M197.76,-745.37C280.28,-715.68 406.17,-667.66 511,-616 513.95,-614.55 516.92,-613.06 519.9,-611.53"/>
<polygon fill="black" stroke="black" points="521.61,-614.59 528.88,-606.88 518.39,-608.37 521.61,-614.59"/>
<text text-anchor="middle" x="373" y="-734.8" font-family="Helvetica,sans-Serif" font-size="14.00">extension_id &#45;&gt; extension_id</text>
<text text-anchor="middle" x="522.38" y="-595.68" font-family="Helvetica,sans-Serif" font-size="14.00">∞</text>
<text text-anchor="middle" x="202.76" y="-734.17" font-family="Helvetica,sans-Serif" font-size="14.00">1</text>
</g>
<!-- base_pulleys -->
<g id="node4" class="node">
<title>base_pulleys</title>
<polygon fill="#ddebf7" stroke="transparent" points="13.5,-681 13.5,-706 204.5,-706 204.5,-681 13.5,-681"/>
<text text-anchor="start" x="59" y="-690.8" font-family="Times,serif" font-weight="bold" font-size="14.00">base_pulleys</text>
<text text-anchor="start" x="18.5" y="-664.8" font-family="Times,serif" font-size="14.00">PK base_pulley_id : TEXT</text>
<text text-anchor="start" x="18.5" y="-639.8" font-family="Times,serif" font-size="14.00"> length_range : TEXT</text>
<text text-anchor="start" x="18.5" y="-614.8" font-family="Times,serif" font-size="14.00"> diameter : TEXT</text>
<text text-anchor="start" x="18.5" y="-589.8" font-family="Times,serif" font-size="14.00"> brand : TEXT</text>
<text text-anchor="start" x="18.5" y="-564.8" font-family="Times,serif" font-size="14.00"> color : TEXT</text>
<text text-anchor="start" x="18.5" y="-539.8" font-family="Times,serif" font-size="14.00"> origin : TEXT</text>
<polygon fill="none" stroke="black" points="12,-530.5 12,-707.5 205,-707.5 205,-530.5 12,-530.5"/>
</g>
<!-- base_pulleys&#45;&gt;rigs -->
<g id="edge6" class="edge">
<title>base_pulleys&#45;&gt;rigs</title>
<path fill="none" stroke="black" d="M205.22,-603.15C291.87,-588.8 420.62,-567.48 518.86,-551.21"/>
<polygon fill="black" stroke="black" points="519.58,-554.64 528.87,-549.55 518.44,-547.73 519.58,-554.64"/>
<text text-anchor="middle" x="373" y="-600.8" font-family="Helvetica,sans-Serif" font-size="14.00">base_pulley_id &#45;&gt; base_pulley_id</text>
<text text-anchor="middle" x="522.37" y="-538.35" font-family="Helvetica,sans-Serif" font-size="14.00">∞</text>
<text text-anchor="middle" x="210.22" y="-591.95" font-family="Helvetica,sans-Serif" font-size="14.00">1</text>
</g>
<!-- booms -->
<g id="node5" class="node">
<title>booms</title>
<polygon fill="#ddebf7" stroke="transparent" points="27.5,-486 27.5,-511 190.5,-511 190.5,-486 27.5,-486"/>
<text text-anchor="start" x="83" y="-495.8" font-family="Times,serif" font-weight="bold" font-size="14.00">booms</text>
<text text-anchor="start" x="32.5" y="-469.8" font-family="Times,serif" font-size="14.00">PK boom_id : TEXT</text>
<text text-anchor="start" x="32.5" y="-444.8" font-family="Times,serif" font-size="14.00"> Length range : TEXT</text>
<text text-anchor="start" x="32.5" y="-419.8" font-family="Times,serif" font-size="14.00"> Brand : TEXT</text>
<text text-anchor="start" x="32.5" y="-394.8" font-family="Times,serif" font-size="14.00"> Model : TEXT</text>
<text text-anchor="start" x="32.5" y="-369.8" font-family="Times,serif" font-size="14.00"> Origin : TEXT</text>
<polygon fill="none" stroke="black" points="26,-360 26,-512 191,-512 191,-360 26,-360"/>
</g>
<!-- booms&#45;&gt;rigs -->
<g id="edge4" class="edge">
<title>booms&#45;&gt;rigs</title>
<path fill="none" stroke="black" d="M191.17,-449.67C277.48,-464.12 415.19,-487.18 518.9,-504.54"/>
<polygon fill="black" stroke="black" points="518.39,-508.01 528.83,-506.21 519.54,-501.1 518.39,-508.01"/>
<text text-anchor="middle" x="373" y="-503.8" font-family="Helvetica,sans-Serif" font-size="14.00">boom_id &#45;&gt; boom_id</text>
<text text-anchor="middle" x="522.33" y="-495.01" font-family="Helvetica,sans-Serif" font-size="14.00">∞</text>
<text text-anchor="middle" x="196.17" y="-438.47" font-family="Helvetica,sans-Serif" font-size="14.00">1</text>
</g>
<!-- rdm_sdm_shims -->
<g id="node6" class="node">
<title>rdm_sdm_shims</title>
<polygon fill="#ddebf7" stroke="transparent" points="1.5,-316 1.5,-341 216.5,-341 216.5,-316 1.5,-316"/>
<text text-anchor="start" x="45.5" y="-325.8" font-family="Times,serif" font-weight="bold" font-size="14.00">rdm_sdm_shims</text>
<text text-anchor="start" x="6.5" y="-299.8" font-family="Times,serif" font-size="14.00">PK rdm_sdm_shim_id : TEXT</text>
<text text-anchor="start" x="6.5" y="-274.8" font-family="Times,serif" font-size="14.00"> color : TEXT</text>
<text text-anchor="start" x="6.5" y="-249.8" font-family="Times,serif" font-size="14.00"> origin : TEXT</text>
<polygon fill="none" stroke="black" points="0,-240 0,-342 217,-342 217,-240 0,-240"/>
</g>
<!-- rdm_sdm_shims&#45;&gt;rigs -->
<g id="edge3" class="edge">
<title>rdm_sdm_shims&#45;&gt;rigs</title>
<path fill="none" stroke="black" d="M217.42,-324.63C299.57,-351.69 414.55,-392.73 511,-439 513.97,-440.43 516.96,-441.89 519.97,-443.4"/>
<polygon fill="black" stroke="black" points="518.5,-446.58 529,-448.01 521.68,-440.35 518.5,-446.58"/>
<text text-anchor="middle" x="373" y="-442.8" font-family="Helvetica,sans-Serif" font-size="14.00">rdm_sdm_shim_id &#45;&gt; rdm_sdm_shim_id</text>
<text text-anchor="middle" x="522.5" y="-436.81" font-family="Helvetica,sans-Serif" font-size="14.00">∞</text>
<text text-anchor="middle" x="222.42" y="-313.43" font-family="Helvetica,sans-Serif" font-size="14.00">1</text>
</g>
<!-- uphauls -->
<g id="node7" class="node">
<title>uphauls</title>
<polygon fill="#ddebf7" stroke="transparent" points="30.5,-196 30.5,-221 186.5,-221 186.5,-196 30.5,-196"/>
<text text-anchor="start" x="76.5" y="-205.8" font-family="Times,serif" font-weight="bold" font-size="14.00">uphauls</text>
<text text-anchor="start" x="35.5" y="-179.8" font-family="Times,serif" font-size="14.00">PK uphaul_id : TEXT</text>
<text text-anchor="start" x="35.5" y="-154.8" font-family="Times,serif" font-size="14.00"> color : TEXT</text>
<text text-anchor="start" x="35.5" y="-129.8" font-family="Times,serif" font-size="14.00"> origin : TEXT</text>
<polygon fill="none" stroke="black" points="29.5,-120 29.5,-222 187.5,-222 187.5,-120 29.5,-120"/>
</g>
<!-- uphauls&#45;&gt;rigs -->
<g id="edge2" class="edge">
<title>uphauls&#45;&gt;rigs</title>
<path fill="none" stroke="black" d="M187.83,-178.93C276.89,-191.89 421.49,-225.43 511,-311 524.68,-324.08 520.04,-334.44 529.17,-355.14"/>
<polygon fill="black" stroke="black" points="526.17,-356.98 533.81,-364.33 532.42,-353.82 526.17,-356.98"/>
<text text-anchor="middle" x="373" y="-314.8" font-family="Helvetica,sans-Serif" font-size="14.00">uphaul_id &#45;&gt; uphaul_id</text>
<text text-anchor="middle" x="527.31" y="-353.13" font-family="Helvetica,sans-Serif" font-size="14.00">∞</text>
<text text-anchor="middle" x="192.83" y="-167.73" font-family="Helvetica,sans-Serif" font-size="14.00">1</text>
</g>
<!-- harness_lines -->
<g id="node8" class="node">
<title>harness_lines</title>
<polygon fill="#ddebf7" stroke="transparent" points="10.5,-76 10.5,-101 207.5,-101 207.5,-76 10.5,-76"/>
<text text-anchor="start" x="54.5" y="-85.8" font-family="Times,serif" font-weight="bold" font-size="14.00">harness_lines</text>
<text text-anchor="start" x="15.5" y="-59.8" font-family="Times,serif" font-size="14.00">PK harness_line_id : TEXT</text>
<text text-anchor="start" x="15.5" y="-34.8" font-family="Times,serif" font-size="14.00"> color : TEXT</text>
<text text-anchor="start" x="15.5" y="-9.8" font-family="Times,serif" font-size="14.00"> origin : TEXT</text>
<polygon fill="none" stroke="black" points="9,0 9,-102 208,-102 208,0 9,0"/>
</g>
<!-- harness_lines&#45;&gt;rigs -->
<g id="edge1" class="edge">
<title>harness_lines&#45;&gt;rigs</title>
<path fill="none" stroke="black" d="M208.37,-50.43C301.63,-55.7 437.75,-79.49 511,-168 536.09,-198.31 516.57,-302.65 529.41,-354.68"/>
<polygon fill="black" stroke="black" points="526.11,-355.85 532.43,-364.35 532.79,-353.76 526.11,-355.85"/>
<text text-anchor="middle" x="373" y="-171.8" font-family="Helvetica,sans-Serif" font-size="14.00">harness_line_id &#45;&gt; harness_line_id</text>
<text text-anchor="middle" x="538.93" y="-353.15" font-family="Helvetica,sans-Serif" font-size="14.00">∞</text>
<text text-anchor="middle" x="213.37" y="-39.23" font-family="Helvetica,sans-Serif" font-size="14.00">1</text>
</g>
<!-- boards -->
<g id="node9" class="node">
<title>boards</title>
<polygon fill="#ddebf7" stroke="transparent" points="581,-320 581,-345 739,-345 739,-320 581,-320"/>
<text text-anchor="start" x="633" y="-329.8" font-family="Times,serif" font-weight="bold" font-size="14.00">boards</text>
<text text-anchor="start" x="586" y="-303.8" font-family="Times,serif" font-size="14.00">PK board_id : TEXT</text>
<text text-anchor="start" x="586" y="-278.8" font-family="Times,serif" font-size="14.00"> story : TEXT</text>
<text text-anchor="start" x="586" y="-253.8" font-family="Times,serif" font-size="14.00"> volume : INTEGER</text>
<text text-anchor="start" x="586" y="-228.8" font-family="Times,serif" font-size="14.00"> brand : TEXT</text>
<text text-anchor="start" x="586" y="-203.8" font-family="Times,serif" font-size="14.00"> model : TEXT</text>
<text text-anchor="start" x="586" y="-178.8" font-family="Times,serif" font-size="14.00"> vin : TEXT</text>
<text text-anchor="start" x="586" y="-153.8" font-family="Times,serif" font-size="14.00"> daggerboard : TEXT</text>
<text text-anchor="start" x="586" y="-128.8" font-family="Times,serif" font-size="14.00"> origin : TEXT</text>
<polygon fill="none" stroke="black" points="580,-119.5 580,-346.5 740,-346.5 740,-119.5 580,-119.5"/>
</g>
<!-- rig_board -->
<g id="node11" class="node">
<title>rig_board</title>
<polygon fill="#ddebf7" stroke="transparent" points="973,-277 973,-302 1149,-302 1149,-277 973,-277"/>
<text text-anchor="start" x="1023.5" y="-286.8" font-family="Times,serif" font-weight="bold" font-size="14.00">rig_board</text>
<text text-anchor="start" x="978" y="-260.8" font-family="Times,serif" font-size="14.00">PK rig_board_id : TEXT</text>
<text text-anchor="start" x="978" y="-235.8" font-family="Times,serif" font-size="14.00"> board_id : TEXT</text>
<text text-anchor="start" x="978" y="-210.8" font-family="Times,serif" font-size="14.00"> rig_id : TEXT</text>
<polygon fill="none" stroke="black" points="972,-201 972,-303 1150,-303 1150,-201 972,-201"/>
</g>
<!-- boards&#45;&gt;rig_board -->
<g id="edge10" class="edge">
<title>boards&#45;&gt;rig_board</title>
<path fill="none" stroke="black" d="M740.31,-236.78C803.86,-239.8 893.36,-244.06 961.5,-247.31"/>
<polygon fill="black" stroke="black" points="961.67,-250.82 971.82,-247.8 962,-243.83 961.67,-250.82"/>
<text text-anchor="middle" x="881.5" y="-249.8" font-family="Helvetica,sans-Serif" font-size="14.00">board_id &#45;&gt; board_id</text>
<text text-anchor="middle" x="965.32" y="-236.6" font-family="Helvetica,sans-Serif" font-size="14.00">∞</text>
<text text-anchor="middle" x="745.31" y="-225.58" font-family="Helvetica,sans-Serif" font-size="14.00">1</text>
</g>
<!-- rigs&#45;&gt;rig_board -->
<g id="edge9" class="edge">
<title>rigs&#45;&gt;rig_board</title>
<path fill="none" stroke="black" d="M791.1,-438.01C852.51,-395.53 923.95,-346.11 977.75,-308.89"/>
<polygon fill="black" stroke="black" points="980,-311.6 986.23,-303.03 976.01,-305.84 980,-311.6"/>
<text text-anchor="middle" x="881.5" y="-425.8" font-family="Helvetica,sans-Serif" font-size="14.00">rig_id &#45;&gt; rig_id</text>
<text text-anchor="middle" x="979.73" y="-306.83" font-family="Helvetica,sans-Serif" font-size="14.00">∞</text>
<text text-anchor="middle" x="796.1" y="-426.81" font-family="Helvetica,sans-Serif" font-size="14.00">1</text>
</g>
</g>
</svg>
